<svg xmlns="http://www.w3.org/2000/svg" version="1.1" xmlns:xlink="http://www.w3.org/1999/xlink" width="512" height="512"><svg width="512" height="512" viewBox="0 0 512 512" fill="none" xmlns="http://www.w3.org/2000/svg">
<path d="M248.594 492.725C240.554 492.122 233.217 489.81 227.388 483.98C222.163 478.753 220.253 472.118 220.756 464.881C221.459 454.528 226.082 446.285 234.423 440.053C235.73 439.048 237.237 438.545 238.544 437.741C239.75 436.937 240.453 436.032 240.755 434.525C241.157 432.112 241.358 429.599 241.76 427.086C242.463 422.664 244.775 418.944 247.488 415.527C249.598 412.813 252.312 410.702 255.126 408.792C258.844 406.38 257.638 404.068 255.829 401.655C255.327 400.952 254.121 401.052 253.618 401.957C251.407 405.375 248.292 408.089 245.478 411.004C243.368 413.114 242.363 415.225 242.162 418.241C241.659 424.372 238.745 429.298 233.619 432.816C220.052 442.164 200.455 441.561 187.692 431.509C177.24 423.367 178.145 408.792 184.375 401.655C187.692 397.836 191.913 395.624 196.536 394.016C199.551 392.91 202.666 392.307 205.882 392.307C208.997 392.307 211.108 390.799 212.414 387.884C214.525 382.859 217.238 378.034 219.751 373.108C219.952 372.706 220.153 372.405 220.454 372.103C221.258 370.897 221.057 370.294 219.851 369.691C217.942 368.685 216.434 369.188 215.228 371.198C211.711 377.33 203.47 378.536 198.244 373.711C194.928 370.595 193.923 365.368 195.933 361.147C197.842 356.925 202.566 354.11 207.088 354.613C208.696 354.814 210.203 355.417 211.409 356.523C212.012 357.126 212.615 357.628 213.319 358.131C215.128 359.337 217.037 359.639 218.846 358.533C222.263 356.422 225.68 354.412 228.896 352.1C229.398 351.698 229.8 351.296 230.102 350.793C231.207 349.084 230.705 347.476 228.896 346.672C227.589 346.069 226.182 345.968 224.776 345.868C220.454 345.566 216.434 344.159 212.414 343.053C201.259 339.837 190.305 335.917 180.054 330.288C168.296 323.854 158.045 315.612 150.307 304.455C143.372 294.403 139.051 283.245 136.438 271.384C134.529 262.639 133.524 253.693 133.624 244.747C133.725 231.478 136.036 218.612 140.458 206.148C141.664 202.73 140.86 201.625 137.242 201.625C132.519 201.524 127.896 201.323 123.172 201.323C120.961 201.323 118.75 201.323 116.539 201.424C110.711 201.625 107.897 199.815 105.585 194.488C102.369 186.949 99.1534 179.41 96.0379 171.871C86.3901 148.451 76.8429 125.03 67.7981 101.408C67.3961 100.303 66.9941 99.1969 66.4916 98.0912C65.7881 96.5834 64.5821 95.6788 62.9742 95.5782C60.8637 95.4777 58.7533 95.3772 56.8438 94.5731C51.8189 92.4622 49.3065 88.3409 48.201 83.2145C48.201 83.0135 48.201 82.7119 48 82.6114C48 81.6062 48 80.5005 48 79.4954C48.603 76.0778 50.1105 73.1627 52.6229 70.7503C56.8438 66.6291 61.8687 65.8249 67.2956 67.5337C72.5214 69.2425 75.7374 72.8612 76.8429 78.2891C77.0438 79.0933 77.0438 79.9979 77.0438 80.8021C77.0438 83.8176 77.9483 84.9233 80.8628 85.5264C85.1842 86.4311 89.4051 87.3358 93.7265 88.2404C111.314 92.0601 128.8 96.0808 146.186 100.303C157.945 103.218 169.602 106.233 181.26 109.148C184.878 110.053 186.988 111.963 187.591 115.883C188.596 123.321 189.903 130.76 191.008 138.198C191.008 138.399 191.109 138.7 191.109 138.901C191.611 141.012 192.415 141.414 194.224 140.409C196.737 139.103 199.249 137.695 201.762 136.389C216.937 128.448 233.016 122.819 249.9 119.904C258.342 118.396 266.884 117.692 275.527 117.491C293.516 117.089 311.103 119.602 328.389 123.924C329.293 124.125 330.198 124.326 331.102 124.427C332.71 124.527 333.514 123.924 333.816 122.316C333.916 121.914 334.017 121.612 334.017 121.21C333.916 117.089 334.419 112.968 334.117 108.847C333.715 104.122 335.826 100.403 339.745 97.6891C342.76 95.5782 346.177 94.0705 349.393 92.3616C373.914 79.3948 398.737 67.1317 423.761 55.0695C424.364 54.7679 424.867 54.4664 425.47 54.1648C428.283 52.6571 429.489 50.2446 428.987 47.2291C427.68 40.0923 432.906 34.2623 438.936 32.5535C446.876 30.3421 455.217 34.9659 457.126 42.7058C459.036 50.3452 455.016 57.884 447.881 59.9949C447.378 60.0954 446.876 60.2964 446.373 60.397C443.459 61.1006 442.152 62.4073 441.851 65.4229C441.248 71.1524 440.745 76.8819 440.142 82.7119C439.238 91.3565 438.434 100.102 437.529 108.746C436.725 117.29 435.821 125.834 435.017 134.378C434.213 142.721 433.409 151.064 432.605 159.407C432.102 164.131 429.791 167.549 425.369 169.559C419.942 172.072 414.716 175.188 409.289 177.601C406.576 178.807 406.073 180.315 407.581 183.029C410.093 187.653 412.606 192.176 414.716 196.9C419.54 207.857 422.756 219.316 423.761 231.277C425.369 249.572 422.957 267.363 415.621 284.25C411.601 293.498 405.772 301.54 398.838 308.676C397.23 310.385 395.521 311.993 393.712 313.602C392.707 314.506 392.104 315.713 391.602 316.919C390.396 320.135 389.893 323.452 389.994 326.971C390.094 331.192 393.009 331.896 395.923 331.594C397.531 331.393 398.938 330.589 400.144 329.483C406.777 323.352 416.023 327.574 417.932 333.906C420.646 342.953 413.209 348.783 407.279 348.582C404.365 348.481 402.054 347.275 400.044 345.265C397.833 342.852 396.627 342.651 393.612 343.757C392.707 344.059 391.803 344.36 390.898 344.762C389.592 345.265 388.989 346.069 389.29 347.476C390.597 354.814 390.295 362.152 389.592 369.49C388.888 376.626 386.275 382.657 379.944 386.678C378.437 387.583 378.135 388.689 378.738 390.297C379.341 391.905 380.045 393.513 380.748 395.021C381.552 396.931 382.155 398.841 382.657 400.851C383.461 404.269 385.572 405.978 389.19 406.078C395.019 406.279 400.044 404.269 404.666 400.952C410.897 396.428 415.42 390.699 417.028 382.959C417.53 380.446 417.128 378.436 414.817 376.928C412.907 375.722 411.199 374.214 409.39 372.907C408.988 372.606 408.586 372.304 408.284 372.003C406.274 370.093 406.274 367.982 408.787 366.575C418.033 361.147 427.077 355.518 436.926 351.095C437.328 350.894 437.73 350.793 438.132 350.693C440.544 349.889 442.152 350.592 443.157 353.005C444.363 356.02 445.268 359.237 446.172 362.353C448.383 369.791 450.292 377.33 451.9 384.969C451.9 385.07 452.001 385.17 452.001 385.371C452.503 388.488 451.197 389.694 448.182 389.191C447.579 389.091 446.976 388.89 446.273 388.789C443.861 388.286 442.253 388.89 440.946 391C439.841 392.81 438.936 394.72 437.831 396.529C433.509 404.168 428.183 410.903 420.847 415.929C412.405 421.859 402.858 424.473 392.607 424.272C390.295 424.272 387.984 423.769 385.773 423.166C383.662 422.563 382.457 423.066 381.653 424.976C378.437 432.916 372.608 438.445 365.271 442.667C365.171 442.767 364.97 442.868 364.869 442.868C361.251 444.878 360.849 446.084 361.854 450.206C364.367 460.257 361.151 468.399 353.413 474.933C347.684 479.758 340.85 482.773 333.715 484.884C322.761 488.101 311.606 490.212 300.249 490.513C295.827 490.614 291.305 490.111 286.984 488.905C284.371 488.201 281.758 488.302 279.145 489.005C271.708 491.016 264.171 492.122 256.533 492.725C253.618 492.825 251.106 492.825 248.594 492.725Z" fill="#211815" data-darkreader-inline-fill="" style="--darkreader-inline-fill: var(--darkreader-background-211815, #524d4c);"></path>
<path d="M254.724 384.467C254.624 383.462 254.322 383.161 253.217 383.462C251.106 384.065 248.895 384.065 246.684 383.965C242.664 383.663 239.85 381.452 238.544 377.733C237.639 375.119 237.539 372.506 237.74 369.792C237.84 368.987 237.639 368.686 236.835 368.585C233.419 368.183 230.504 369.088 228.293 371.902C227.288 373.209 226.484 374.616 225.781 376.124C223.771 380.346 221.66 384.568 219.449 388.689C218.042 391.403 217.741 392.71 220.555 394.62C220.655 394.72 220.756 394.72 220.856 394.821C221.459 395.424 221.761 396.027 221.459 396.931C221.158 397.736 220.555 398.339 219.65 398.439C219.047 398.54 218.444 398.439 217.841 398.439C216.133 398.238 214.525 398.238 212.716 398.138C211.711 398.138 210.505 398.238 209.299 398.339C203.671 398.841 198.244 400.249 193.32 403.164C188.496 406.079 186.386 410.401 186.687 416.03C186.989 421.86 190.104 425.68 195.028 428.394C202.566 432.414 210.505 433.922 218.947 432.615C225.58 431.61 230.906 428.394 234.122 422.161C235.831 418.945 236.534 415.427 236.735 411.808C236.835 410.2 237.237 408.893 238.745 407.988C239.951 407.285 241.056 406.179 242.061 405.174C245.78 401.555 248.895 397.334 252.312 393.514C254.423 390.9 255.026 387.784 254.724 384.467ZM380.547 344.562C379.844 344.361 379.04 344.16 378.437 343.757C377.13 343.054 376.829 342.049 377.432 340.641C377.834 339.636 378.537 338.832 379.241 338.128C382.557 334.208 383.964 329.584 383.663 324.559C383.261 318.93 380.849 314.406 376.025 311.391C374.216 310.285 372.507 309.079 370.698 307.873C367.081 305.259 363.965 302.244 362.558 297.921C362.056 296.313 359.945 294.805 358.337 294.906C356.83 295.006 355.624 296.212 355.121 298.223C354.719 300.032 354.619 301.841 355.121 303.651C356.026 307.068 355.121 309.481 352.106 311.391C351.403 311.793 350.599 312.195 349.895 312.597C346.881 314.205 344.77 316.618 343.564 319.834C342.559 322.649 342.358 325.564 342.66 328.479C343.263 335.414 346.579 340.34 353.413 342.451C354.217 342.752 355.121 343.054 355.825 343.456C357.131 344.16 357.332 345.064 356.629 346.371C356.227 347.175 355.624 347.879 354.92 348.482C354.317 348.984 354.116 349.588 354.217 350.291C354.217 352.1 354.217 353.91 354.217 355.719H354.418C354.418 357.528 354.418 359.237 354.418 361.047C354.418 361.951 354.317 362.856 353.815 363.761C352.81 365.369 351.302 365.469 350.197 363.962C349.393 362.956 348.89 361.851 348.689 360.544C348.087 357.629 348.388 354.613 348.187 351.698C348.087 349.286 347.886 348.381 345.172 348.08C344.469 347.979 343.765 347.778 343.062 347.678C342.157 347.577 341.353 347.979 341.152 348.884C340.75 350.191 340.348 351.598 340.147 352.905C339.946 354.412 339.946 356.021 341.655 356.925C345.675 359.036 347.685 362.554 348.689 366.776C348.89 367.58 348.991 368.485 349.493 369.289C351.101 371.5 352.709 373.812 354.418 376.024C356.729 379.039 359.543 381.251 363.161 382.557C370.698 385.271 377.934 382.256 381.15 375.22C382.256 372.807 382.658 370.194 382.959 367.58C383.964 360.544 383.361 353.508 382.256 346.471C381.854 345.366 381.452 344.763 380.547 344.562ZM371.502 392.107C370.799 390.699 369.492 389.996 367.885 389.895C364.066 389.594 360.448 388.689 357.031 386.88C352.709 384.568 349.493 381.15 347.182 376.928C346.278 375.22 345.675 375.019 343.966 376.024C342.961 376.627 341.856 377.129 340.75 377.532C335.122 379.542 330.097 377.33 327.685 371.902C327.183 370.696 326.781 369.39 326.58 368.083C326.278 366.274 325.274 365.268 323.565 364.866C314.219 362.655 304.973 360.142 295.727 357.729C293.617 357.126 291.707 357.428 289.898 358.735C284.873 362.152 279.648 365.168 274.12 367.58C269.497 369.691 264.673 371.4 259.548 372.807C259.95 373.31 260.251 373.812 260.553 374.214C261.759 375.521 262.06 376.928 261.859 378.637C261.357 382.356 261.256 386.076 261.357 389.795C261.457 395.323 262.362 400.751 264.472 405.878C266.181 409.798 268.593 413.316 271.507 416.432C272.613 417.538 272.713 418.543 271.909 419.548C271.105 420.654 269.899 421.056 268.593 420.453C267.487 419.95 266.583 419.246 265.678 418.543C264.673 417.638 263.668 416.633 262.663 415.829C260.05 413.818 258.643 413.919 256.232 416.03C251.106 420.553 248.091 426.082 247.488 432.917C247.388 434.123 247.689 435.128 248.493 436.133C250.503 438.244 250.202 439.953 247.589 441.36C246.081 442.165 244.473 442.768 242.966 443.471C233.62 447.794 228.092 455.031 227.389 465.384C226.886 473.124 229.801 479.356 236.936 483.176C241.358 485.488 246.182 486.292 251.106 486.392C256.634 486.493 262.161 485.789 267.588 484.885C269.196 484.583 270.804 484.483 272.311 483.98C273.718 483.477 274.12 482.673 273.517 481.367C273.216 480.663 272.814 480.06 272.412 479.457C264.171 467.797 266.382 450.809 277.437 441.964C280.049 439.953 281.255 437.139 281.356 433.922C281.356 431.51 281.557 429.097 281.858 426.685C284.974 406.782 301.355 392.308 321.455 391.705C329.092 391.504 335.926 393.514 341.956 398.339C342.76 398.942 343.564 399.645 344.167 400.55C344.77 401.656 344.469 402.862 343.564 403.867C342.76 404.671 341.755 404.671 340.851 404.068C340.248 403.767 339.544 403.365 338.941 402.963C330.801 397.836 321.957 396.831 312.912 399.645C300.953 403.365 292.612 410.903 288.994 423.066C287.989 426.283 287.687 429.6 287.989 432.917C288.19 434.525 288.994 435.028 290.602 434.827C291.305 434.726 292.009 434.525 292.712 434.425C294.22 434.224 295.526 435.128 295.727 436.536C295.928 437.641 295.325 438.646 294.019 439.35C292.612 440.054 291.104 440.556 289.597 441.26C278.14 446.487 273.115 457.644 274.321 466.892C275.125 473.225 278.14 478.15 283.969 481.065C288.29 483.176 292.813 484.181 297.536 484.181C310.5 484.081 323.163 481.568 335.323 477.245C340.047 475.536 344.569 473.426 348.287 470.109C353.312 465.686 355.825 460.258 355.021 453.423C354.619 450.005 353.212 447.09 351.604 444.074C349.996 441.059 350.398 440.456 353.815 439.953C355.021 439.752 356.327 439.853 357.433 439.25C360.247 437.742 362.96 436.234 365.473 434.224C372.708 428.595 376.829 421.357 376.728 412.009C377.03 404.671 374.718 398.238 371.502 392.107ZM387.08 266.861C385.271 258.116 381.552 250.276 375.422 243.742C374.216 242.435 372.909 241.129 371.904 239.721C371.301 238.817 371.201 237.409 369.493 237.711C369.292 237.711 369.091 237.309 368.89 237.208C366.779 235.299 364.468 233.59 362.156 231.982C353.815 226.252 344.67 222.231 335.223 218.814C331.102 217.306 327.183 218.01 323.565 220.422C316.53 224.945 309.495 229.469 302.561 233.992C295.727 238.415 288.994 242.938 282.059 247.361C276.934 250.678 271.608 251.381 265.98 248.667C264.07 247.763 262.06 246.858 260.151 245.853C248.091 239.42 235.931 232.886 224.072 226.051C217.841 222.432 211.812 222.533 205.681 226.252C198.345 230.574 191.712 235.6 185.883 241.832C173.321 255.402 167.693 271.284 170.607 289.779C172.517 301.841 178.145 312.094 186.989 320.538C193.521 326.77 201.36 330.992 210.003 333.706C221.459 337.324 233.117 339.938 245.076 341.345C251.207 342.049 257.438 342.451 263.568 342.652C265.176 342.752 266.784 342.752 268.392 342.853C269.196 342.853 269.799 342.652 270.201 341.948C270.502 341.345 269.799 341.043 269.598 340.641C268.392 339.033 267.286 337.324 266.482 335.414C264.573 330.891 264.372 326.167 264.874 321.342C265.276 317.824 264.171 316.015 260.854 314.507C258.04 313.2 256.332 310.788 255.126 308.074C254.624 306.867 255.026 305.963 255.93 305.36C256.835 304.756 257.639 304.958 258.543 305.963C258.844 306.365 259.146 306.666 259.447 307.068C261.859 309.782 264.774 311.793 268.291 312.597C276.432 314.306 284.17 313.2 291.607 309.581C295.426 307.772 298.541 304.958 301.255 301.741C301.858 301.037 302.561 300.434 303.666 301.037C304.671 301.64 304.973 302.445 304.571 303.751C304.269 304.757 303.867 305.661 303.264 306.465C301.958 308.074 301.858 309.682 302.36 311.592C304.169 318.025 304.671 324.659 303.264 331.293C302.461 335.012 300.953 338.531 298.943 341.948C299.345 341.948 299.546 341.948 299.848 341.948C307.686 341.345 315.626 340.541 323.364 339.134C326.881 338.531 330.399 337.726 333.816 337.023C336.63 336.42 337.233 335.314 336.73 332.499C336.73 332.399 336.63 332.298 336.63 332.298C335.725 328.177 335.524 324.056 336.63 319.935C338.037 314.607 341.253 310.687 345.675 307.571C346.68 306.867 347.685 306.264 348.086 305.058C349.192 302.043 349.795 299.027 348.89 295.911C348.086 292.895 345.675 291.187 343.062 289.98C337.735 287.467 334.419 283.246 332.61 277.717C331.002 272.892 330.399 267.866 329.896 262.841C329.494 259.322 330.198 258.116 333.514 257.01C335.926 256.106 338.539 255.503 340.951 254.498C350.398 250.276 359.443 245.35 367.784 239.118C368.287 238.817 368.789 238.314 369.292 238.314C369.694 238.314 370.799 238.013 370.497 238.917C369.292 242.335 367.784 245.551 364.267 247.26C364.066 247.361 363.965 247.461 363.764 247.562C362.86 248.366 362.96 249.773 363.965 250.979C364.669 251.784 365.171 251.784 366.377 250.879C367.282 250.175 368.086 249.472 368.89 248.567C369.392 248.064 369.794 247.562 370.598 248.064C371.402 248.567 371.804 249.271 371.402 250.075C370.698 251.583 369.995 253.09 368.387 253.894C366.88 254.699 366.076 256.005 366.176 257.815C366.277 259.825 366.88 261.634 367.282 263.645C368.186 268.47 368.789 273.294 367.885 278.22C367.282 281.637 366.176 284.753 364.367 287.769C363.563 289.076 363.563 289.377 364.769 290.382C365.774 291.287 366.679 292.292 367.382 293.297C368.99 295.509 370.096 297.921 371.301 300.334C372.608 302.847 374.718 304.153 377.432 304.455C380.547 304.756 381.753 304.153 382.658 301.439C382.859 300.836 383.16 300.133 383.462 299.53C387.381 288.774 389.391 278.119 387.08 266.861ZM228.997 281.838C225.379 281.738 221.861 281.738 218.243 282.14C211.51 282.844 205.078 284.653 198.948 287.668C198.445 287.97 197.842 288.171 197.34 288.372C195.732 288.875 194.526 288.573 193.722 287.367C192.717 285.96 192.717 284.351 193.722 283.045C194.425 282.24 195.229 281.637 196.234 281.235C202.465 278.019 209.098 276.31 216.032 275.405C216.535 275.305 217.037 275.204 217.741 275.104C211.611 270.178 205.078 267.163 197.34 267.062C196.435 267.062 195.531 267.062 194.727 266.962C193.119 266.761 192.214 265.957 192.013 264.449C191.812 262.639 192.516 261.333 194.023 260.73C195.43 260.227 196.837 260.227 198.345 260.227C208.294 260.629 216.937 264.147 224.876 269.977C227.087 271.586 229.198 273.294 231.208 275.104C232.012 275.807 232.615 276.611 232.715 277.717C233.017 280.23 231.61 281.838 228.997 281.838ZM281.657 297.419C279.346 299.429 276.532 300.233 273.819 300.334C271.005 300.334 268.593 299.63 266.482 298.122C261.859 294.906 261.558 289.176 265.779 285.558C269.799 282.039 276.331 281.537 280.854 284.351C285.778 287.367 286.18 293.599 281.657 297.419Z" fill="#FDFDFD" data-darkreader-inline-fill="" style="--darkreader-inline-fill: var(--darkreader-background-fdfdfd, #515353);"></path>
<path d="M415.118 233.689C414.817 229.769 414.314 225.849 413.611 221.929C412.103 213.586 409.39 205.645 405.872 198.006C402.958 191.874 399.541 186.144 395.621 180.616C392.908 176.796 389.994 173.178 386.778 169.76C383.059 165.739 379.14 162.02 374.919 158.502C370.598 154.984 366.176 151.667 361.553 148.752C355.121 144.63 348.388 140.911 341.353 137.896C334.117 134.679 326.68 132.166 319.042 130.156C309.696 127.743 300.048 126.336 290.4 125.934C286.179 125.733 282.059 125.532 277.838 125.733C273.416 126.035 268.894 126.135 264.472 126.537C260.954 126.839 257.437 127.241 253.92 127.844C247.488 128.95 241.056 130.357 234.725 132.066C223.167 135.282 212.113 139.605 201.661 145.636C192.817 150.762 184.777 156.894 177.441 163.829C172.617 168.353 168.195 173.178 164.276 178.505C159.452 184.938 155.231 191.874 151.814 199.212C148.698 205.946 146.186 212.882 144.478 220.119C142.87 226.754 142.166 233.589 141.764 240.424C141.563 243.842 141.664 247.36 141.865 250.777C142.166 255.301 142.669 259.724 143.372 264.146C144.679 272.087 146.789 279.827 150.105 287.265C154.326 296.614 159.854 304.957 167.592 311.691C169.602 313.501 171.913 314.908 174.727 316.114C173.823 315.008 173.22 314.204 172.617 313.4C168.698 308.274 165.884 302.544 164.376 296.312C163.07 290.784 162.567 285.155 163.07 279.425C163.271 276.51 163.472 273.696 164.075 270.881C166.587 257.613 172.918 246.254 182.164 236.504C184.677 233.79 187.39 231.377 190.204 229.166C194.827 225.447 199.55 221.728 205.078 219.315C209.701 217.305 214.525 216.4 219.549 217.405C222.866 218.109 225.881 219.416 228.795 221.125C236.433 225.447 243.87 229.97 251.508 234.192C256.935 237.208 262.361 239.922 267.989 242.434C271.607 244.043 275.225 244.043 278.642 241.731C280.954 240.123 283.365 238.514 285.677 237.006C296.028 230.372 306.379 223.738 316.831 217.204C319.344 215.596 321.756 213.787 324.469 212.581C326.781 211.475 329.293 210.972 331.906 211.374C334.016 211.776 336.026 212.48 337.936 213.184C344.669 215.596 351.201 218.31 357.533 221.627C363.362 224.743 368.889 228.261 373.813 232.684C380.044 238.313 385.27 244.746 388.888 252.386C392.305 259.523 393.913 267.162 394.315 275.002C394.616 279.023 394.214 283.044 393.511 287.064C392.506 293.297 390.697 299.328 388.185 305.057C387.984 305.459 387.582 305.962 387.984 306.263C388.386 306.665 388.888 306.163 389.29 306.062C389.491 305.962 389.692 305.761 389.793 305.66C392.908 302.645 395.822 299.428 398.435 296.011C404.164 288.572 408.284 280.229 411.098 271.283C413.51 263.543 414.817 255.602 415.118 247.46C415.52 242.736 415.52 238.213 415.118 233.689ZM284.37 197.804C282.863 194.789 282.561 191.472 283.365 188.255C284.37 183.933 289.295 183.33 291.908 185.039C293.214 185.843 294.219 186.949 294.923 188.456C295.928 190.668 297.134 192.779 297.234 194.789C297.234 199.413 293.817 202.931 290.099 202.227C287.385 201.725 285.476 200.116 284.37 197.804ZM246.282 202.529C243.669 201.825 241.659 199.614 241.458 196.799C241.156 192.879 242.161 189.361 245.076 186.446C247.186 184.335 249.699 183.732 252.211 184.838C254.422 185.843 255.528 187.853 255.528 191.673C255.427 193.985 254.925 197 253.116 199.614C251.307 202.127 248.895 203.132 246.282 202.529ZM182.466 138.197C181.863 133.674 181.36 129.151 180.858 124.627C180.355 120.305 178.546 117.189 174.024 115.983C170.004 114.877 165.984 113.771 161.964 112.766C150.909 109.952 139.654 107.338 128.498 104.825C122.167 103.418 115.936 101.91 109.605 100.503C101.063 98.5933 92.6207 96.784 84.0784 94.9746C81.767 94.472 79.556 93.6679 77.1441 93.6679C75.3351 93.6679 74.9331 94.1705 75.1341 95.9798C75.3351 97.9902 75.9381 99.7995 76.6416 101.609C78.4506 106.132 80.561 110.655 82.2695 115.279C87.2944 128.849 92.9222 142.118 98.4496 155.486C101.565 163.025 104.68 170.564 107.494 178.304C108.7 181.621 110.007 184.938 112.017 187.954C115.132 192.578 119.655 194.487 125.082 193.884C128.297 193.583 131.413 192.779 134.629 192.98C136.94 193.08 139.151 192.98 141.463 193.181C143.573 193.382 145.583 192.779 146.789 190.869C148.095 188.758 149.301 186.647 150.608 184.536C153.824 179.309 157.341 174.384 161.16 169.659C163.472 166.845 165.884 164.232 168.296 161.518C171.612 157.798 175.23 154.582 179.049 151.365C181.36 149.355 183.672 147.546 183.069 144.027C183.37 142.118 182.767 140.107 182.466 138.197ZM430.293 60.9996C426.374 62.7084 422.555 64.4172 418.736 66.327C411.4 69.9457 404.365 74.0669 397.028 77.4845C391.099 80.1985 385.27 83.013 379.642 86.2296C374.014 89.4462 368.387 92.5622 362.658 95.4772C357.231 98.2917 351.804 101.006 346.277 103.619C343.765 104.825 342.659 106.434 342.76 109.248C342.86 111.962 342.458 114.676 342.257 117.39C342.056 120.004 341.654 122.517 341.554 125.13C341.554 125.834 341.755 126.336 341.956 126.939C342.76 128.849 344.368 129.955 346.076 130.86C348.187 132.066 350.498 132.97 352.709 134.076C358.94 137.192 364.869 140.71 370.598 144.63C376.828 149.053 382.758 153.878 388.185 159.306C390.999 162.02 393.612 164.935 396.727 167.348C398.938 169.056 401.45 170.162 404.465 169.559C406.978 169.056 409.289 168.051 411.601 167.046C415.319 165.538 418.937 163.729 422.052 161.115C423.359 160.01 424.263 158.804 424.464 156.994C424.665 155.084 424.766 153.074 424.967 151.164C425.268 148.149 425.57 145.133 425.871 142.118C426.072 140.107 426.173 138.097 426.374 135.986C426.675 132.97 426.977 129.854 427.278 126.839C427.58 124.024 427.781 121.21 428.082 118.395C428.384 115.48 428.685 112.565 428.987 109.65C429.188 107.74 429.288 105.73 429.489 103.82C429.791 101.006 430.092 98.1912 430.394 95.3767C430.595 93.3663 430.695 91.356 430.896 89.4461C431.298 85.727 431.7 82.0078 432.102 78.2887C432.303 76.2783 432.404 74.1674 432.605 72.0565C432.906 69.1415 433.208 66.2265 433.509 63.613C433.409 60.7985 432.404 60.0949 430.293 60.9996ZM444.061 378.737C443.157 375.721 442.554 372.706 441.85 369.69C441.046 366.072 440.242 362.453 438.635 359.035C437.831 357.226 436.022 357.226 434.916 358.03C430.092 361.146 424.967 363.86 419.741 366.373C419.238 366.675 418.635 366.976 418.233 367.278C416.525 368.484 416.324 370.293 417.731 371.801C418.635 372.806 419.54 373.811 420.645 374.515C422.856 375.922 423.761 377.631 423.158 380.345C422.454 384.064 421.65 387.683 420.042 391.1C417.63 396.327 414.214 400.75 409.591 404.369C403.561 409.194 396.827 411.908 389.089 412.008C388.285 412.008 387.481 412.008 386.677 412.008C386.376 412.008 386.175 412.209 385.873 412.209C384.868 412.31 384.165 412.812 384.064 413.717C383.763 415.124 384.265 416.129 385.371 416.632C387.582 417.637 389.893 418.341 392.305 418.24C393.712 418.24 395.219 418.14 396.626 418.039C399.641 417.838 402.656 417.336 405.571 416.532C413.711 414.019 420.344 409.395 425.771 402.962C430.394 397.534 433.911 391.402 436.826 384.868C437.831 382.556 438.735 381.853 441.348 381.953C441.85 381.953 442.353 381.953 442.755 381.953C443.659 381.853 444.262 381.35 444.262 380.245C444.262 379.742 444.162 379.239 444.061 378.737ZM289.496 351.094C289.295 350.793 288.893 350.893 288.591 350.893C278.843 350.793 269.195 351.094 259.447 350.592C257.337 350.491 255.226 350.592 253.116 350.29C252.01 350.19 250.905 350.089 249.799 349.989C247.186 349.687 244.573 349.386 241.458 349.084C240.754 348.983 239.749 349.486 238.744 350.29C237.538 351.295 236.333 352.401 235.127 353.406C231.911 356.12 228.795 358.834 225.579 361.548C225.177 361.85 224.976 362.252 225.177 362.654C225.378 363.156 225.68 363.458 226.182 363.559C226.584 363.559 227.087 363.559 227.489 363.559C228.795 363.458 230.102 363.257 231.408 363.156C233.418 362.955 235.428 362.754 237.337 362.553C240.754 362.151 244.071 360.945 247.488 360.241C252.513 359.236 257.236 357.628 260.753 353.607C261.155 353.105 261.859 353.004 262.562 353.306C264.17 353.909 264.773 355.115 264.07 356.824C263.065 359.136 262.361 361.649 261.055 363.86C260.653 364.564 260.653 365.368 261.356 365.971C261.959 366.574 262.663 366.273 263.165 365.87C263.668 365.468 264.271 365.468 264.874 365.267C265.778 365.066 266.683 364.966 267.487 364.564C272.009 362.352 276.532 360.141 281.054 357.729C284.069 356.12 286.682 354.009 289.094 351.697C289.295 351.597 289.697 351.396 289.496 351.094ZM334.619 347.677C334.117 345.867 333.011 345.164 331.202 345.566C330.599 345.666 330.097 345.767 329.594 345.968C323.967 347.476 318.138 348.28 312.208 348.883C307.987 349.386 303.766 349.587 299.546 349.888C298.541 349.989 297.636 350.089 296.732 350.19C296.129 350.29 295.827 350.491 296.43 351.195C297.435 352.301 298.742 353.004 300.149 353.205C301.355 353.406 302.661 353.507 303.767 353.909C309.394 355.517 315.022 357.125 320.851 358.432C323.263 358.935 325.575 359.839 328.087 360.04C329.795 360.141 331.102 359.437 332.308 358.332C335.423 355.316 335.825 351.697 334.619 347.677ZM63.0744 71.554C57.4465 71.755 52.7231 75.5747 52.6226 81.0026C52.5221 86.1291 57.346 90.7529 61.9689 90.5519C67.0943 90.7529 71.5162 86.5311 71.5162 81.7063C71.6167 76.9819 66.9938 71.3529 63.0744 71.554ZM443.056 37.2773C437.529 37.2773 433.61 41.097 433.409 46.324C433.208 51.1488 437.831 55.5716 442.956 55.5716C448.483 55.5716 452.302 51.6514 452.503 46.0224C452.604 40.9965 448.081 37.3779 443.056 37.2773Z" fill="#3A3B36" data-darkreader-inline-fill="" style="--darkreader-inline-fill: var(--darkreader-background-3a3b36, #5e6061);"></path>
<path d="M299.345 323.352C299.345 327.172 298.842 330.991 297.234 334.509C294.32 341.143 287.989 342.953 282.461 342.249C274.924 341.244 270.201 336.218 269.095 328.378C268.794 326.166 268.794 323.854 268.894 321.643C268.995 319.331 269.799 318.426 272.01 318.125C273.517 317.924 275.024 317.723 276.532 317.924C278.743 318.125 279.547 319.13 279.346 321.341C279.044 324.055 279.446 326.669 279.848 329.282C279.949 329.785 280.15 330.288 280.351 330.79C280.853 331.695 281.557 331.996 282.562 331.795C283.466 331.594 283.768 330.79 283.768 329.986C283.768 327.976 283.366 325.965 283.667 323.955C284.572 317.924 290.2 312.797 295.928 312.797C297.335 312.797 297.837 313.2 298.239 314.607C299.043 317.421 299.345 320.437 299.345 323.352ZM341.051 283.446C344.77 288.171 349.594 290.181 355.523 289.075C360.85 288.171 364.97 281.335 363.563 276.108C362.156 277.214 360.649 278.219 359.242 279.425C355.423 282.542 351.001 283.547 346.177 282.743C344.267 282.441 342.358 282.24 340.348 281.938C340.348 282.542 340.75 282.944 341.051 283.446Z" fill="#F3CFDC" data-darkreader-inline-fill="" style="--darkreader-inline-fill: var(--darkreader-background-f3cfdc, #714c59);"></path>
<path d="M337.634 360.745C333.514 360.745 330.901 363.258 330.8 367.379C330.8 370.997 333.614 373.912 337.232 373.912C341.051 373.912 343.966 371.098 344.066 367.479C344.167 363.861 341.252 360.745 337.634 360.745ZM248.593 366.776C244.372 366.776 241.659 369.389 241.759 373.41C241.759 377.028 244.674 379.843 248.593 379.944C252.211 379.944 255.025 377.028 254.925 373.209C254.824 369.49 252.211 366.776 248.593 366.776ZM407.38 330.891C403.561 330.891 400.646 333.806 400.646 337.726C400.646 341.345 403.561 344.26 407.179 344.26C410.897 344.26 413.611 341.546 413.611 337.525C413.711 333.705 411.098 330.891 407.38 330.891ZM205.882 359.237C201.661 359.237 199.148 361.75 199.048 365.972C199.048 369.59 201.862 372.405 205.681 372.405C209.5 372.405 212.213 369.59 212.213 365.77C212.314 362.051 209.5 359.237 205.882 359.237ZM297.737 166.343C288.491 156.191 276.733 152.873 263.467 154.18C254.322 155.085 246.583 159.307 240.252 165.941C233.016 173.48 229.8 182.225 232.011 192.679C233.619 199.916 237.237 205.947 243.87 209.767C247.186 211.676 250.704 212.682 254.422 213.385C256.834 213.787 257.437 214.591 257.437 217.004V217.708C257.538 219.617 258.442 220.623 260.351 220.924C261.356 221.125 262.462 221.125 263.467 221.025C265.477 220.824 266.18 220.019 265.979 217.909C265.879 216.3 265.879 214.692 266.08 213.084C266.18 212.079 266.582 211.274 267.688 211.375C268.793 211.375 268.994 212.28 269.095 213.184C269.296 214.994 269.396 216.803 269.597 218.612C269.698 220.22 270.401 220.924 272.009 221.025C273.718 221.025 274.421 220.623 274.522 218.813C274.622 216.803 274.622 214.893 274.723 212.883C274.823 211.978 275.125 211.073 276.23 211.073C277.336 211.073 277.637 211.877 277.738 212.883C277.939 214.29 277.939 215.697 277.838 217.104C277.537 219.617 278.542 220.723 281.054 220.824C281.858 220.824 282.762 220.723 283.566 220.723C285.878 220.522 286.983 219.416 286.883 217.104C286.682 214.29 287.787 212.682 290.802 211.475C300.651 207.656 306.379 199.313 306.58 188.758C306.48 181.22 303.164 172.273 297.737 166.343ZM253.015 199.614C251.307 202.127 248.895 203.132 246.282 202.429C243.669 201.725 241.659 199.514 241.458 196.699C241.156 192.779 242.161 189.261 245.076 186.346C247.186 184.235 249.699 183.632 252.211 184.738C254.422 185.743 255.528 187.753 255.528 191.573C255.327 193.985 254.824 197.001 253.015 199.614ZM289.998 202.228C287.385 201.725 285.476 200.117 284.27 197.805C282.762 194.789 282.461 191.472 283.265 188.256C284.27 183.934 289.194 183.33 291.807 185.039C293.114 185.843 294.119 186.949 294.822 188.457C295.827 190.668 297.033 192.779 297.134 194.789C297.134 199.413 293.717 202.831 289.998 202.228ZM277.738 295.006C275.024 296.212 272.21 296.112 269.396 295.006C268.09 294.503 267.286 293.498 267.185 291.99C267.085 290.181 267.487 288.673 269.095 287.769C270.703 286.763 272.512 286.763 274.321 286.562C275.125 286.562 275.929 286.663 276.733 286.864C278.743 287.266 280.049 288.472 280.25 290.181C280.552 292.593 279.748 294.202 277.738 295.006Z" fill="#DA83A4" data-darkreader-inline-fill="" style="--darkreader-inline-fill: var(--darkreader-background-da83a4, #90586d);"></path>
</svg><style>@media (prefers-color-scheme: light) { :root { filter: none; } }
@media (prefers-color-scheme: dark) { :root { filter: none; } }
</style></svg>